<svg width="64" height="31" viewBox="0 0 64 31" fill="none" xmlns="http://www.w3.org/2000/svg">
<path d="M59.5527 6.31543C59.293 5.94434 58.8662 5.72168 58.4209 5.72168H49.793V2.04785C49.793 1.28711 49.1621 0.65625 48.4014 0.65625H17.1367C16.376 0.65625 15.7451 1.28711 15.7451 2.04785V24.5361C15.7451 25.2969 16.376 25.9277 17.1367 25.9277H21.0703C21.7939 28.4512 24.1318 30.3252 26.8779 30.3252C29.624 30.3252 31.9619 28.4697 32.6855 25.9277H48.1045C48.8281 28.4512 51.166 30.3252 53.9121 30.3252C56.6582 30.3252 58.9961 28.4697 59.7197 25.9277H62.5957C63.3564 25.9277 63.9873 25.2969 63.9873 24.5361V13.0879C63.9873 12.791 63.8945 12.5127 63.7275 12.29L59.5527 6.31543ZM61.2227 13.4961H54.9883V8.52344H57.7158L61.2227 13.4961ZM18.5283 3.45801H47.0098V23.1631H32.8154C32.2773 20.3613 29.8281 18.2461 26.8779 18.2461C23.9277 18.2461 21.46 20.3613 20.9404 23.1631H18.5283V3.45801ZM26.8779 27.542C25.0781 27.542 23.6123 26.0762 23.6123 24.2764C23.6123 22.4766 25.0781 21.0107 26.8779 21.0107C28.6777 21.0107 30.1436 22.4766 30.1436 24.2764C30.1436 26.0762 28.6777 27.542 26.8779 27.542ZM53.9307 27.542C52.1309 27.542 50.665 26.0762 50.665 24.2764C50.665 22.4766 52.1309 21.0107 53.9307 21.0107C55.7305 21.0107 57.1963 22.4766 57.1963 24.2764C57.1963 26.0762 55.7305 27.542 53.9307 27.542ZM59.8682 23.1631C59.3301 20.3613 56.8809 18.2461 53.9307 18.2461C52.335 18.2461 50.8691 18.877 49.793 19.8975V8.52344H52.1865V14.8877C52.1865 15.6484 52.8174 16.2793 53.5781 16.2793H61.2412V23.1631H59.8682Z" fill="#E63F23"/>
<path d="M2.36719 3.45801H12.2939C13.0547 3.45801 13.6855 2.82715 13.6855 2.06641C13.6855 1.30566 13.0547 0.674805 12.2939 0.674805H2.36719C1.60645 0.674805 0.975586 1.30566 0.975586 2.06641C0.975586 2.82715 1.60645 3.45801 2.36719 3.45801Z" fill="#E63F23"/>
<path d="M12.2939 5.74023H4.64941C3.88867 5.74023 3.25781 6.37109 3.25781 7.13184C3.25781 7.89258 3.88867 8.52344 4.64941 8.52344H12.2939C13.0547 8.52344 13.6855 7.89258 13.6855 7.13184C13.6855 6.37109 13.0732 5.74023 12.2939 5.74023Z" fill="#E63F23"/>
<path d="M12.2939 10.8057H7.46973C6.70898 10.8057 6.07812 11.4365 6.07812 12.1973C6.07812 12.958 6.70898 13.5889 7.46973 13.5889H12.2939C13.0547 13.5889 13.6855 12.958 13.6855 12.1973C13.6855 11.4365 13.0732 10.8057 12.2939 10.8057Z" fill="#E63F23"/>
<path d="M12.2939 15.8711H10.624C9.86328 15.8711 9.23242 16.502 9.23242 17.2627C9.23242 18.0234 9.86328 18.6543 10.624 18.6543H12.2939C13.0547 18.6543 13.6855 18.0234 13.6855 17.2627C13.6855 16.502 13.0732 15.8711 12.2939 15.8711Z" fill="#E63F23"/>
</svg>
