<svg width="12" height="12" viewBox="0 0 12 12" fill="none" xmlns="http://www.w3.org/2000/svg">
<path d="M6 0C4.81331 0 3.65328 0.351894 2.66658 1.01118C1.67989 1.67047 0.910851 2.60754 0.456725 3.7039C0.00259972 4.80025 -0.11622 6.00665 0.115291 7.17054C0.346802 8.33443 0.918247 9.40352 1.75736 10.2426C2.59648 11.0818 3.66557 11.6532 4.82946 11.8847C5.99335 12.1162 7.19975 11.9974 8.2961 11.5433C9.39246 11.0891 10.3295 10.3201 10.9888 9.33342C11.6481 8.34672 12 7.18669 12 6C11.9983 4.40922 11.3656 2.88407 10.2408 1.75921C9.11593 0.63436 7.59078 0.0016799 6 0ZM6.46154 11.0556V7.38461H7.84616C7.96856 7.38461 8.08596 7.33599 8.17251 7.24943C8.25907 7.16288 8.30769 7.04548 8.30769 6.92308C8.30769 6.80067 8.25907 6.68327 8.17251 6.59672C8.08596 6.51016 7.96856 6.46154 7.84616 6.46154H6.46154V5.07692C6.46154 4.83211 6.55879 4.59732 6.7319 4.42421C6.90501 4.2511 7.1398 4.15385 7.38462 4.15385H8.30769C8.4301 4.15385 8.54749 4.10522 8.63405 4.01866C8.72061 3.93211 8.76923 3.81471 8.76923 3.69231C8.76923 3.5699 8.72061 3.45251 8.63405 3.36595C8.54749 3.27939 8.4301 3.23077 8.30769 3.23077H7.38462C6.89499 3.23077 6.42541 3.42527 6.07919 3.77149C5.73297 4.11772 5.53846 4.58729 5.53846 5.07692V6.46154H4.15385C4.03144 6.46154 3.91405 6.51016 3.82749 6.59672C3.74094 6.68327 3.69231 6.80067 3.69231 6.92308C3.69231 7.04548 3.74094 7.16288 3.82749 7.24943C3.91405 7.33599 4.03144 7.38461 4.15385 7.38461H5.53846V11.0556C4.23738 10.9368 3.03217 10.321 2.17352 9.33632C1.31487 8.35162 0.86889 7.0738 0.928338 5.76867C0.987785 4.46353 1.54809 3.23155 2.4927 2.32898C3.43731 1.42642 4.69351 0.922753 6 0.922753C7.30649 0.922753 8.56269 1.42642 9.5073 2.32898C10.4519 3.23155 11.0122 4.46353 11.0717 5.76867C11.1311 7.0738 10.6851 8.35162 9.82648 9.33632C8.96783 10.321 7.76262 10.9368 6.46154 11.0556Z" fill="white"/>
</svg>
