<svg width="12" height="12" viewBox="0 0 12 12" fill="none" xmlns="http://www.w3.org/2000/svg">
<path d="M11.4223 8.06754L8.59567 6.80093L8.58787 6.79733C8.44112 6.73456 8.28105 6.70938 8.12212 6.72404C7.9632 6.73871 7.81044 6.79277 7.67766 6.88133C7.66203 6.89165 7.647 6.90287 7.63266 6.91493L6.17225 8.15994C5.24704 7.71053 4.29184 6.76253 3.84243 5.84932L5.08924 4.36671C5.10124 4.35171 5.11264 4.33671 5.12344 4.32051C5.2101 4.18809 5.26268 4.0363 5.27649 3.87865C5.29031 3.721 5.26494 3.56238 5.20264 3.4169V3.4097L3.93243 0.578283C3.85008 0.38824 3.70847 0.229929 3.52874 0.126983C3.34902 0.0240359 3.14082 -0.018025 2.93523 0.00707863C2.1222 0.114063 1.37592 0.513343 0.835771 1.13034C0.29562 1.74734 -0.00146457 2.53987 5.42922e-06 3.3599C5.42922e-06 8.12394 3.87603 12 8.64007 12C9.4601 12.0014 10.2526 11.7043 10.8696 11.1642C11.4866 10.624 11.8859 9.87777 11.9929 9.06474C12.018 8.85922 11.9761 8.65107 11.8732 8.47136C11.7704 8.29164 11.6122 8.14999 11.4223 8.06754ZM8.64007 11.04C6.60387 11.0377 4.65171 10.2279 3.2119 8.78806C1.7721 7.34826 0.962236 5.3961 0.960012 3.3599C0.957755 2.77399 1.16884 2.20729 1.55386 1.76564C1.93887 1.32398 2.47148 1.03757 3.05223 0.959885V0.967085L4.31224 3.78711L3.07203 5.27152C3.05944 5.286 3.048 5.30145 3.03783 5.31772C2.94754 5.45627 2.89457 5.6158 2.88405 5.78084C2.87354 5.94588 2.90584 6.11084 2.97783 6.25972C3.52143 7.37153 4.64164 8.48334 5.76545 9.02634C5.91543 9.09765 6.08134 9.12884 6.24698 9.11685C6.41261 9.10486 6.57231 9.05011 6.71045 8.95794C6.72586 8.94757 6.74068 8.93635 6.75485 8.92434L8.21346 7.67993L11.0335 8.94294H11.0401C10.9634 9.5245 10.6774 10.0582 10.2356 10.4442C9.79389 10.8301 9.22667 11.0419 8.64007 11.04Z" fill="white"/>
</svg>
