<svg width="69" height="28" viewBox="0 0 69 28" fill="none" xmlns="http://www.w3.org/2000/svg">
<path d="M7.476 0.599999V9H6.036V1.908H2.688V5.856C2.688 6.472 2.596 7.02 2.412 7.5C2.228 7.972 1.944 8.34 1.56 8.604C1.184 8.868 0.704 9 0.12 9V7.788C0.312 7.788 0.48 7.74 0.624 7.644C0.768 7.54 0.888 7.4 0.984 7.224C1.088 7.04 1.164 6.824 1.212 6.576C1.268 6.328 1.296 6.056 1.296 5.76V0.599999H7.476ZM10.0335 4.8C10.0335 5.376 10.1535 5.892 10.3935 6.348C10.6415 6.796 10.9815 7.148 11.4135 7.404C11.8455 7.66 12.3375 7.788 12.8895 7.788C13.4495 7.788 13.9415 7.66 14.3655 7.404C14.7975 7.148 15.1335 6.796 15.3735 6.348C15.6215 5.892 15.7455 5.376 15.7455 4.8C15.7455 4.224 15.6255 3.712 15.3855 3.264C15.1455 2.808 14.8095 2.452 14.3775 2.196C13.9535 1.94 13.4575 1.812 12.8895 1.812C12.3375 1.812 11.8455 1.94 11.4135 2.196C10.9815 2.452 10.6415 2.808 10.3935 3.264C10.1535 3.712 10.0335 4.224 10.0335 4.8ZM8.5335 4.8C8.5335 4.168 8.6415 3.588 8.8575 3.06C9.0735 2.532 9.3775 2.076 9.7695 1.692C10.1695 1.3 10.6335 0.995999 11.1615 0.779999C11.6975 0.564 12.2735 0.456 12.8895 0.456C13.5215 0.456 14.1015 0.564 14.6295 0.779999C15.1575 0.995999 15.6175 1.3 16.0095 1.692C16.4095 2.076 16.7175 2.532 16.9335 3.06C17.1495 3.588 17.2575 4.168 17.2575 4.8C17.2575 5.424 17.1495 6.004 16.9335 6.54C16.7175 7.076 16.4135 7.54 16.0215 7.932C15.6295 8.324 15.1655 8.632 14.6295 8.856C14.1015 9.072 13.5215 9.18 12.8895 9.18C12.2655 9.18 11.6855 9.072 11.1495 8.856C10.6135 8.632 10.1495 8.324 9.7575 7.932C9.3735 7.54 9.0735 7.076 8.8575 6.54C8.6415 6.004 8.5335 5.424 8.5335 4.8ZM18.8953 0.599999L22.4473 4.56L18.7153 9H17.0113L20.7673 4.536L17.1913 0.599999H18.8953ZM22.1233 0.599999H23.5753V9H22.1233V0.599999ZM26.6833 0.599999H28.4233L24.8473 4.536L28.6033 9H26.8633L23.2513 4.56L26.6833 0.599999ZM29.1998 0.599999H30.6518V9H29.1998V0.599999ZM33.7718 0.599999H35.4758L31.9358 4.536L35.6558 9H33.9158L30.2198 4.572L33.7718 0.599999ZM36.6918 4.8C36.6918 5.376 36.8118 5.892 37.0518 6.348C37.2998 6.796 37.6398 7.148 38.0718 7.404C38.5038 7.66 38.9958 7.788 39.5478 7.788C40.1078 7.788 40.5998 7.66 41.0238 7.404C41.4558 7.148 41.7918 6.796 42.0318 6.348C42.2798 5.892 42.4038 5.376 42.4038 4.8C42.4038 4.224 42.2838 3.712 42.0438 3.264C41.8038 2.808 41.4678 2.452 41.0358 2.196C40.6118 1.94 40.1158 1.812 39.5478 1.812C38.9958 1.812 38.5038 1.94 38.0718 2.196C37.6398 2.452 37.2998 2.808 37.0518 3.264C36.8118 3.712 36.6918 4.224 36.6918 4.8ZM35.1918 4.8C35.1918 4.168 35.2998 3.588 35.5158 3.06C35.7318 2.532 36.0358 2.076 36.4278 1.692C36.8278 1.3 37.2918 0.995999 37.8198 0.779999C38.3558 0.564 38.9318 0.456 39.5478 0.456C40.1798 0.456 40.7598 0.564 41.2878 0.779999C41.8158 0.995999 42.2758 1.3 42.6678 1.692C43.0678 2.076 43.3758 2.532 43.5918 3.06C43.8078 3.588 43.9158 4.168 43.9158 4.8C43.9158 5.424 43.8078 6.004 43.5918 6.54C43.3758 7.076 43.0718 7.54 42.6798 7.932C42.2878 8.324 41.8238 8.632 41.2878 8.856C40.7598 9.072 40.1798 9.18 39.5478 9.18C38.9238 9.18 38.3438 9.072 37.8078 8.856C37.2718 8.632 36.8078 8.324 36.4158 7.932C36.0318 7.54 35.7318 7.076 35.5158 6.54C35.2998 6.004 35.1918 5.424 35.1918 4.8ZM45.4969 5.148V3.84H48.7009V5.148H45.4969ZM44.9329 0.599999H46.3489V9H44.9329V0.599999ZM49.2289 4.8C49.2289 5.376 49.3489 5.892 49.5889 6.348C49.8369 6.796 50.1729 7.148 50.5969 7.404C51.0289 7.66 51.5249 7.788 52.0849 7.788C52.6449 7.788 53.1369 7.66 53.5609 7.404C53.9849 7.148 54.3209 6.796 54.5689 6.348C54.8169 5.892 54.9409 5.376 54.9409 4.8C54.9409 4.224 54.8169 3.712 54.5689 3.264C54.3289 2.808 53.9929 2.452 53.5609 2.196C53.1369 1.94 52.6449 1.812 52.0849 1.812C51.5249 1.812 51.0289 1.94 50.5969 2.196C50.1729 2.452 49.8369 2.808 49.5889 3.264C49.3489 3.712 49.2289 4.224 49.2289 4.8ZM47.7169 4.8C47.7169 4.168 47.8249 3.588 48.0409 3.06C48.2649 2.532 48.5729 2.076 48.9649 1.692C49.3569 1.3 49.8169 0.995999 50.3449 0.779999C50.8809 0.564 51.4609 0.456 52.0849 0.456C52.7089 0.456 53.2849 0.564 53.8129 0.779999C54.3489 0.995999 54.8129 1.3 55.2049 1.692C55.5969 2.076 55.9009 2.532 56.1169 3.06C56.3329 3.588 56.4409 4.168 56.4409 4.8C56.4409 5.424 56.3329 6.004 56.1169 6.54C55.9009 7.076 55.5969 7.54 55.2049 7.932C54.8129 8.324 54.3529 8.632 53.8249 8.856C53.2969 9.072 52.7169 9.18 52.0849 9.18C51.4529 9.18 50.8689 9.072 50.3329 8.856C49.8049 8.632 49.3449 8.324 48.9529 7.932C48.5609 7.54 48.2569 7.076 48.0409 6.54C47.8249 6.004 47.7169 5.424 47.7169 4.8ZM62.4529 4.452C62.3009 4.276 62.1289 4.088 61.9369 3.888C61.7449 3.68 61.5769 3.452 61.4329 3.204C61.2969 2.956 61.2289 2.684 61.2289 2.388C61.2289 2.02 61.3209 1.688 61.5049 1.392C61.6969 1.096 61.9609 0.864 62.2969 0.696C62.6409 0.527999 63.0369 0.443999 63.4849 0.443999C63.9489 0.443999 64.3409 0.535999 64.6609 0.719999C64.9889 0.903999 65.2369 1.144 65.4049 1.44C65.5809 1.728 65.6689 2.04 65.6689 2.376C65.6689 2.608 65.6249 2.824 65.5369 3.024C65.4569 3.224 65.3369 3.416 65.1769 3.6C65.0169 3.784 64.8209 3.964 64.5889 4.14C64.3569 4.316 64.0889 4.496 63.7849 4.68C63.5689 4.816 63.3369 4.944 63.0889 5.064C62.8409 5.184 62.6049 5.316 62.3809 5.46C62.1569 5.604 61.9729 5.776 61.8289 5.976C61.6929 6.168 61.6249 6.404 61.6249 6.684C61.6249 6.94 61.6929 7.168 61.8289 7.368C61.9649 7.568 62.1489 7.724 62.3809 7.836C62.6129 7.94 62.8809 7.992 63.1849 7.992C63.5529 7.992 63.9089 7.912 64.2529 7.752C64.5969 7.592 64.9289 7.38 65.2489 7.116C65.5689 6.844 65.8769 6.536 66.1729 6.192C66.4689 5.84 66.7529 5.472 67.0249 5.088L67.9609 5.736C67.6649 6.144 67.3449 6.552 67.0009 6.96C66.6649 7.36 66.2969 7.724 65.8969 8.052C65.4969 8.372 65.0609 8.632 64.5889 8.832C64.1169 9.032 63.6009 9.132 63.0409 9.132C62.5529 9.132 62.0969 9.04 61.6729 8.856C61.2489 8.664 60.9049 8.392 60.6409 8.04C60.3849 7.688 60.2569 7.268 60.2569 6.78C60.2569 6.42 60.3249 6.108 60.4609 5.844C60.5969 5.572 60.7689 5.336 60.9769 5.136C61.1929 4.936 61.4249 4.768 61.6729 4.632C61.9209 4.488 62.1609 4.364 62.3929 4.26C62.6329 4.156 62.8369 4.064 63.0049 3.984C63.4529 3.744 63.8009 3.492 64.0489 3.228C64.2969 2.956 64.4209 2.696 64.4209 2.448C64.4209 2.272 64.3809 2.116 64.3009 1.98C64.2289 1.844 64.1249 1.736 63.9889 1.656C63.8529 1.568 63.6849 1.524 63.4849 1.524C63.1809 1.524 62.9449 1.612 62.7769 1.788C62.6169 1.956 62.5369 2.172 62.5369 2.436C62.5369 2.692 62.6409 2.944 62.8489 3.192C63.0649 3.432 63.3089 3.708 63.5809 4.02L68.0209 9H66.4969L62.4529 4.452ZM2.016 21.668V20.972H3.372C3.636 20.972 3.868 20.928 4.068 20.84C4.268 20.752 4.424 20.628 4.536 20.468C4.648 20.3 4.704 20.1 4.704 19.868C4.704 19.516 4.58 19.244 4.332 19.052C4.084 18.86 3.764 18.764 3.372 18.764H2.352V24.836H3.528C3.848 24.836 4.132 24.784 4.38 24.68C4.628 24.576 4.824 24.42 4.968 24.212C5.112 24.004 5.184 23.744 5.184 23.432C5.184 23.208 5.14 23.012 5.052 22.844C4.972 22.668 4.856 22.524 4.704 22.412C4.56 22.292 4.388 22.208 4.188 22.16C3.988 22.104 3.768 22.076 3.528 22.076H2.016V21.296H3.612C4.02 21.296 4.404 21.34 4.764 21.428C5.124 21.516 5.444 21.652 5.724 21.836C6.012 22.02 6.236 22.256 6.396 22.544C6.556 22.832 6.636 23.176 6.636 23.576C6.636 24.128 6.504 24.584 6.24 24.944C5.984 25.304 5.628 25.572 5.172 25.748C4.724 25.916 4.204 26 3.612 26H0.936V17.6H3.468C3.996 17.6 4.46 17.676 4.86 17.828C5.268 17.98 5.584 18.212 5.808 18.524C6.04 18.836 6.156 19.232 6.156 19.712C6.156 20.128 6.04 20.484 5.808 20.78C5.584 21.068 5.268 21.288 4.86 21.44C4.46 21.592 3.996 21.668 3.468 21.668H2.016ZM15.2353 19.124L7.77131 26.42L7.83131 24.476L15.2953 17.18L15.2353 19.124ZM9.16331 17.6V24.836L7.77131 26.42V17.6H9.16331ZM15.2953 17.18V26H13.9033V18.8L15.2953 17.18ZM20.806 20.036L18.706 25.64H17.122L20.818 17.18L24.502 25.64H22.918L20.806 20.036ZM23.938 26H17.686V27.32H16.342V24.728H25.282V27.32H23.938V26ZM27.275 26V24.752H31.511V26H27.275ZM27.275 18.848V17.6H31.511V18.848H27.275ZM27.275 22.112V20.888H31.271V22.112H27.275ZM26.399 17.6H27.791V26H26.399V17.6ZM39.4344 17.6V26H37.9944V18.908H34.6464V22.856C34.6464 23.472 34.5544 24.02 34.3704 24.5C34.1864 24.972 33.9024 25.34 33.5184 25.604C33.1424 25.868 32.6624 26 32.0784 26V24.788C32.2704 24.788 32.4384 24.74 32.5824 24.644C32.7264 24.54 32.8464 24.4 32.9424 24.224C33.0464 24.04 33.1224 23.824 33.1704 23.576C33.2264 23.328 33.2544 23.056 33.2544 22.76V17.6H39.4344ZM40.9719 17.6H42.4239V26H40.9719V17.6ZM45.5439 17.6H47.2479L43.7079 21.536L47.4279 26H45.6879L41.9919 21.572L45.5439 17.6ZM48.464 21.8C48.464 22.376 48.584 22.892 48.824 23.348C49.072 23.796 49.412 24.148 49.844 24.404C50.276 24.66 50.768 24.788 51.32 24.788C51.88 24.788 52.372 24.66 52.796 24.404C53.228 24.148 53.564 23.796 53.804 23.348C54.052 22.892 54.176 22.376 54.176 21.8C54.176 21.224 54.056 20.712 53.816 20.264C53.576 19.808 53.24 19.452 52.808 19.196C52.384 18.94 51.888 18.812 51.32 18.812C50.768 18.812 50.276 18.94 49.844 19.196C49.412 19.452 49.072 19.808 48.824 20.264C48.584 20.712 48.464 21.224 48.464 21.8ZM46.964 21.8C46.964 21.168 47.072 20.588 47.288 20.06C47.504 19.532 47.808 19.076 48.2 18.692C48.6 18.3 49.064 17.996 49.592 17.78C50.128 17.564 50.704 17.456 51.32 17.456C51.952 17.456 52.532 17.564 53.06 17.78C53.588 17.996 54.048 18.3 54.44 18.692C54.84 19.076 55.148 19.532 55.364 20.06C55.58 20.588 55.688 21.168 55.688 21.8C55.688 22.424 55.58 23.004 55.364 23.54C55.148 24.076 54.844 24.54 54.452 24.932C54.06 25.324 53.596 25.632 53.06 25.856C52.532 26.072 51.952 26.18 51.32 26.18C50.696 26.18 50.116 26.072 49.58 25.856C49.044 25.632 48.58 25.324 48.188 24.932C47.804 24.54 47.504 24.076 47.288 23.54C47.072 23.004 46.964 22.424 46.964 21.8ZM57.2691 22.148V20.84H60.4731V22.148H57.2691ZM56.7051 17.6H58.1211V26H56.7051V17.6ZM61.0011 21.8C61.0011 22.376 61.1211 22.892 61.3611 23.348C61.6091 23.796 61.9451 24.148 62.3691 24.404C62.8011 24.66 63.2971 24.788 63.8571 24.788C64.4171 24.788 64.9091 24.66 65.3331 24.404C65.7571 24.148 66.0931 23.796 66.3411 23.348C66.5891 22.892 66.7131 22.376 66.7131 21.8C66.7131 21.224 66.5891 20.712 66.3411 20.264C66.1011 19.808 65.7651 19.452 65.3331 19.196C64.9091 18.94 64.4171 18.812 63.8571 18.812C63.2971 18.812 62.8011 18.94 62.3691 19.196C61.9451 19.452 61.6091 19.808 61.3611 20.264C61.1211 20.712 61.0011 21.224 61.0011 21.8ZM59.4891 21.8C59.4891 21.168 59.5971 20.588 59.8131 20.06C60.0371 19.532 60.3451 19.076 60.7371 18.692C61.1291 18.3 61.5891 17.996 62.1171 17.78C62.6531 17.564 63.2331 17.456 63.8571 17.456C64.4811 17.456 65.0571 17.564 65.5851 17.78C66.1211 17.996 66.5851 18.3 66.9771 18.692C67.3691 19.076 67.6731 19.532 67.8891 20.06C68.1051 20.588 68.2131 21.168 68.2131 21.8C68.2131 22.424 68.1051 23.004 67.8891 23.54C67.6731 24.076 67.3691 24.54 66.9771 24.932C66.5851 25.324 66.1251 25.632 65.5971 25.856C65.0691 26.072 64.4891 26.18 63.8571 26.18C63.2251 26.18 62.6411 26.072 62.1051 25.856C61.5771 25.632 61.1171 25.324 60.7251 24.932C60.3331 24.54 60.0291 24.076 59.8131 23.54C59.5971 23.004 59.4891 22.424 59.4891 21.8Z" fill="white"/>
</svg>
