<svg width="12" height="12" viewBox="0 0 12 12" fill="none" xmlns="http://www.w3.org/2000/svg">
<path d="M11.8914 4.76827L9.96308 2.46058C9.92258 2.41208 9.87299 2.37338 9.8176 2.34703C9.7622 2.32068 9.70224 2.30727 9.64169 2.30769H5.99927V0.461538C5.99927 0.339131 5.95412 0.221737 5.87376 0.135181C5.7934 0.0486262 5.6844 0 5.57075 0C5.4571 0 5.34811 0.0486262 5.26774 0.135181C5.18738 0.221737 5.14223 0.339131 5.14223 0.461538V2.30769H0.857039C0.629738 2.30769 0.411747 2.40495 0.251021 2.57806C0.0902949 2.75117 0 2.98595 0 3.23077V6.92308C0 7.16789 0.0902949 7.40268 0.251021 7.57579C0.411747 7.7489 0.629738 7.84615 0.857039 7.84615H5.14223V11.5385C5.14223 11.6609 5.18738 11.7783 5.26774 11.8648C5.34811 11.9514 5.4571 12 5.57075 12C5.6844 12 5.7934 11.9514 5.87376 11.8648C5.95412 11.7783 5.99927 11.6609 5.99927 11.5385V7.84615H9.64169C9.70179 7.84617 9.76123 7.83257 9.81614 7.80623C9.87105 7.77989 9.9202 7.7414 9.9604 7.69327L11.8887 5.38558C11.9599 5.3012 11.9995 5.19145 12 5.07748C12.0005 4.9635 11.9618 4.85336 11.8914 4.76827ZM9.45099 6.92308H0.857039V3.23077H9.45099L10.9937 5.07692L9.45099 6.92308Z" fill="white"/>
</svg>
